<?xml version="1.0" encoding="utf-8"?>
<!-- Generator: Adobe Illustrator 19.1.0, SVG Export Plug-In . SVG Version: 6.00 Build 0)  -->
<svg version="1.1" id="Layer_1" xmlns="http://www.w3.org/2000/svg" xmlns:xlink="http://www.w3.org/1999/xlink" x="0px" y="0px"
	 viewBox="0 0 326 85.1" style="enable-background:new 0 0 326 85.1;" xml:space="preserve">
<style type="text/css">
	.st0{fill:#010101;}
</style>
<g>
	<g>
		<path class="st0" d="M226.4,62.5h1.2v3.2c0.1-0.3,0.2-0.6,0.5-0.8c0.3-0.2,0.6-0.3,0.9-0.3c0.9,0,1.5,0.5,1.8,1.5
			c0.2,0.6,0.2,1.5,0.2,2.5v4.1c0,1.3-0.1,2.3-0.3,2.8c-0.2,0.5-0.5,0.9-0.8,1c-0.2,0.1-0.4,0.1-0.7,0.1c-0.8,0-1.3-0.3-1.6-1v0.9
			h-1.2V62.5z M229.8,68.2c0-0.9,0-1.5-0.1-1.7c-0.1-0.2-0.2-0.4-0.2-0.5c-0.1-0.2-0.3-0.3-0.6-0.3s-0.4,0-0.5,0
			c-0.3,0.1-0.5,0.3-0.6,0.7c-0.1,0.4-0.2,1-0.2,1.8v4.7c0,1,0.1,1.7,0.2,2.1c0.2,0.4,0.5,0.6,0.9,0.6c0.4,0,0.7-0.2,0.9-0.6
			c0.1-0.4,0.2-1.1,0.2-2.1V68.2z"/>
		<path class="st0" d="M236.4,64.6c0,0,0,0.1,0,0.3c0,0.2,0,0.3,0,0.5v0.2c-0.4,0-0.8,0.1-1.1,0.2c-0.3,0.2-0.6,0.5-0.9,0.9v9.8
			h-1.2V64.7h1.2V66c0.1-0.5,0.4-0.8,0.7-1.1C235.5,64.7,235.9,64.6,236.4,64.6z"/>
		<path class="st0" d="M237.8,68.5c0-1.4,0.1-2.3,0.4-2.8c0.3-0.5,0.6-0.8,1.1-1c0.3-0.1,0.6-0.1,0.9-0.1c0.3,0,0.6,0,0.9,0.1
			c0.4,0.1,0.7,0.5,1,1c0.2,0.4,0.3,1.4,0.3,2.9v2H239v2.4c0,1.2,0.1,2,0.3,2.2c0.2,0.3,0.4,0.4,0.8,0.4s0.6-0.1,0.7-0.3
			c0.1-0.2,0.2-0.5,0.3-0.8s0.1-0.8,0.1-1.4v-0.9h1.1v0.4c0,1.2,0,2-0.1,2.4c-0.2,1.2-0.8,1.7-1.9,1.7c-1,0-1.6-0.3-1.9-0.9
			c-0.2-0.4-0.3-0.8-0.4-1.3c-0.1-0.5-0.1-1.1-0.1-1.9V68.5z M241.1,69.6V68c0-0.9,0-1.5-0.1-1.7c-0.1-0.5-0.4-0.7-0.9-0.7
			c-0.6,0-1,0.4-1.1,1.2c0,0.3-0.1,0.7-0.1,1.2c0,0,0,0.1,0,0.1v1.4H241.1z"/>
		<path class="st0" d="M250.1,64.7h1l-1.4,11.8h-1.2l-1.2-10.1l-1.4,10.1H245l-1.4-11.8h1.1l0.7,7l0.2,2.4h0.1l0.2-2.4l1-6.9h1
			l1.1,6.7l0.3,2.7h0.1l0.2-2.7L250.1,64.7z"/>
		<path class="st0" d="M252.9,62.5h1.2v1.1h-1.2V62.5z M252.9,64.7h1.2v11.8h-1.2V64.7z"/>
		<path class="st0" d="M257.8,65.9c0.1-0.4,0.3-0.7,0.7-0.9c0.4-0.3,0.8-0.4,1.3-0.4c0.5,0,0.9,0.2,1.2,0.6s0.5,1,0.5,1.8v9.5h-1.2
			v-9.6c0-0.5-0.1-0.8-0.3-1c-0.2-0.2-0.5-0.3-0.8-0.3c-0.9,0-1.3,0.4-1.3,1.3v9.6h-1.2V64.7h1.2V65.9z"/>
		<path class="st0" d="M264.1,65.7c0.3-0.7,0.9-1.1,1.6-1.1s1.2,0.3,1.4,0.8v-0.7h1.2v11c0,1.2-0.4,2-1.3,2.4
			c-0.3,0.2-0.7,0.2-1.1,0.2c-0.4,0-0.8-0.1-1.2-0.2c-0.4-0.1-0.7-0.3-1-0.5l0.4-0.9c0.5,0.4,1.1,0.6,1.7,0.6c0.4,0,0.7-0.1,0.9-0.4
			s0.3-0.6,0.3-1.1v-1.3c-0.2,0.4-0.4,0.6-0.6,0.7c-0.2,0.1-0.5,0.2-0.8,0.2c-0.9,0-1.5-0.5-1.7-1.5c-0.2-0.6-0.2-1.4-0.2-2.4v-3
			C263.6,67.4,263.7,66.4,264.1,65.7z M267,68.2c0-1.2-0.1-1.9-0.3-2.2c-0.2-0.3-0.5-0.4-0.8-0.4s-0.7,0.1-0.8,0.4
			c-0.2,0.3-0.3,0.6-0.3,1c0,0.4,0,0.8,0,1.2v3.5c0,1,0.1,1.7,0.3,2.2s0.5,0.6,1,0.6c0.3,0,0.4-0.1,0.6-0.2c0.3-0.3,0.4-1.2,0.4-2.6
			V68.2z"/>
		<path class="st0" d="M273,68.4c0-1.3,0.1-2.2,0.4-2.7c0.3-0.5,0.6-0.8,1.1-1c0.3-0.1,0.6-0.1,1-0.1s0.8,0.1,1.2,0.4
			c0.2,0.2,0.4,0.5,0.6,0.9c0.1,0.4,0.2,1.3,0.2,2.6v0.4h-1.2v-0.7c0-0.9,0-1.5-0.1-1.8c-0.1-0.5-0.4-0.7-0.9-0.7
			c-0.6,0-0.9,0.3-1.1,1c-0.1,0.4-0.1,0.9-0.1,1.6v4.7c0,1.1,0,1.7,0.1,1.9s0.2,0.4,0.2,0.5c0.1,0.2,0.4,0.3,0.8,0.3
			s0.6-0.2,0.8-0.5c0.1-0.3,0.2-0.7,0.2-1.1c0-0.4,0-0.7,0-1v-0.9h1.2v0.4c0,1.2,0,2-0.1,2.4c-0.2,1.2-0.9,1.8-2,1.8
			c-1,0-1.6-0.3-1.9-0.9c-0.2-0.4-0.3-0.8-0.4-1.3c-0.1-0.5-0.1-1.1-0.1-1.9V68.4z"/>
		<path class="st0" d="M279.2,68.5c0-1.4,0.1-2.3,0.4-2.8c0.3-0.5,0.6-0.8,1-1c0.3-0.1,0.6-0.1,0.9-0.1c1.3,0,2.1,0.7,2.2,2.2
			c0.1,0.5,0.1,1.1,0.1,1.8v3.9c0,0.9,0,1.5-0.1,1.8s-0.1,0.5-0.1,0.7c-0.2,1.1-0.9,1.7-2.2,1.7c-0.5,0-0.9-0.1-1.2-0.3
			c-0.6-0.4-0.9-1.1-1-2.2c0-0.5-0.1-1-0.1-1.7V68.5z M282.6,68.2c0-1.3-0.2-2.2-0.5-2.4c-0.2-0.1-0.3-0.2-0.6-0.2
			c-0.6,0-1,0.3-1.1,1c-0.1,0.4-0.1,1-0.1,1.6v4.6c0,1.2,0.1,1.9,0.3,2.2c0.2,0.3,0.5,0.5,0.9,0.5s0.7-0.2,0.8-0.7
			c0.1-0.5,0.2-1.2,0.2-2V68.2z"/>
		<path class="st0" d="M293.1,66.9c0-0.8-0.4-1.2-1.1-1.2c-0.6,0-1,0.2-1.2,0.5c-0.1,0.2-0.1,0.4-0.1,0.6v9.7h-1.2v-9.6
			c0-0.4-0.1-0.8-0.3-0.9c-0.2-0.2-0.5-0.3-0.8-0.3s-0.7,0.1-0.9,0.3s-0.3,0.6-0.3,1v9.5H286V64.7h1.2v1.2c0.1-0.4,0.3-0.7,0.7-0.9
			c0.3-0.3,0.7-0.4,1.1-0.4c0.8,0,1.3,0.4,1.6,1.2c0.2-0.4,0.5-0.6,0.8-0.9c0.4-0.2,0.8-0.3,1.2-0.3c0.5,0,0.9,0.2,1.2,0.6
			c0.3,0.4,0.5,1,0.5,1.8v9.5h-1.2V66.9z"/>
		<path class="st0" d="M297.9,65.6c0.3-0.7,0.8-1,1.6-1c0.5,0,0.9,0.2,1.2,0.5c0.3,0.4,0.4,0.8,0.5,1.4c0.1,0.6,0.1,1.2,0.1,2v4.2
			c0,0,0,0,0,0.1c0,1.5-0.2,2.5-0.6,3s-0.9,0.8-1.6,0.8c-0.3,0-0.5-0.1-0.7-0.3c-0.2-0.2-0.4-0.4-0.5-0.7v2.9h-1.2V64.7h1.2V65.6z
			 M300.1,68.2c0-0.9,0-1.5-0.1-1.7c-0.1-0.2-0.2-0.4-0.3-0.6s-0.3-0.2-0.5-0.2s-0.4,0-0.5,0c-0.3,0.1-0.5,0.3-0.6,0.7
			c-0.1,0.4-0.2,1-0.2,1.8v4.7c0,1,0.1,1.7,0.2,2.1c0.2,0.4,0.5,0.6,0.9,0.6c0.4,0,0.7-0.2,0.9-0.6c0.1-0.4,0.2-1.1,0.2-2.2V68.2z"
			/>
		<path class="st0" d="M303.6,68.2c0-0.9,0-1.4,0.1-1.6s0.1-0.5,0.2-0.7s0.1-0.3,0.2-0.5c0.1-0.1,0.2-0.2,0.3-0.4
			c0.1-0.1,0.2-0.2,0.4-0.3c0.1-0.1,0.3-0.1,0.5-0.2c0.2,0,0.4-0.1,0.7-0.1s0.5,0,0.7,0.1s0.4,0.1,0.5,0.1c0.1,0.1,0.3,0.1,0.4,0.3
			c0.1,0.1,0.2,0.2,0.3,0.3c0.3,0.3,0.4,1.3,0.4,2.9v8.2h-1.2v-0.9c-0.1,0.2-0.2,0.4-0.5,0.6c-0.3,0.2-0.6,0.3-1,0.3
			c-0.6,0-1.1-0.3-1.4-0.8s-0.5-1.3-0.5-2.3V72c0-0.5,0.1-1,0.4-1.3s0.5-0.5,0.7-0.6c0.5-0.3,1-0.6,1.5-0.8c0.5-0.2,0.8-0.3,0.9-0.4
			v-1.3c0-0.8,0-1.2-0.1-1.3s-0.1-0.2-0.1-0.3c-0.1-0.3-0.4-0.4-0.8-0.4s-0.7,0.2-0.9,0.6s-0.2,1.1-0.2,2.1v0.3h-1.2V68.2z
			 M306.8,69.9c-0.9,0.4-1.4,0.6-1.5,0.7c-0.1,0.1-0.3,0.2-0.4,0.3c-0.3,0.3-0.4,0.8-0.4,1.5v0.9c0,0.8,0.1,1.4,0.2,1.7
			c0.1,0.3,0.3,0.5,0.7,0.5c0.3,0,0.6-0.1,0.9-0.2c0.3-0.2,0.4-0.3,0.5-0.5V69.9z"/>
		<path class="st0" d="M311.6,65.9c0.1-0.4,0.3-0.7,0.7-0.9c0.4-0.3,0.8-0.4,1.3-0.4c0.5,0,0.9,0.2,1.2,0.6s0.5,1,0.5,1.8v9.5H314
			v-9.6c0-0.5-0.1-0.8-0.3-1s-0.5-0.3-0.8-0.3c-0.9,0-1.3,0.4-1.3,1.3v9.6h-1.2V64.7h1.2V65.9z"/>
		<path class="st0" d="M320.6,64.7h1.2l-1.9,11.7c-0.1,0.8-0.3,1.3-0.4,1.5c-0.2,0.2-0.3,0.3-0.5,0.3c-0.2,0-0.4,0.1-0.6,0.1h-1v-1
			h0.4c0.6,0,0.9,0,1-0.1c0.1-0.1,0.1-0.2,0.1-0.3s0-0.2,0-0.3c0-0.1,0-0.2-0.1-0.4l-2-11.5h1.2l0.9,6.2l0.4,3.2h0.1l0.3-3.2
			L320.6,64.7z"/>
	</g>
	<g>
		<path class="st0" d="M40.4,5.2c4,0.3,7.3,1.3,9.9,2.8c2.6,1.5,4.7,3.3,6.1,5.5c1.4,2.2,2.2,4.5,2.3,7c0.2,2.5-0.2,5-1.2,7.4
			c-1,2.4-2.6,4.7-4.7,6.8c-2.1,2.1-4.7,3.8-7.9,5c2.6,1.4,4.4,3.1,5.5,5.2c1.1,2.1,1.4,4.2,1.1,6.5c-0.3,2.3-1.2,4.5-2.8,6.6
			c-1.6,2.2-3.7,4.1-6.4,5.7c-2.7,1.6-5.8,2.8-9.5,3.6c-3.7,0.8-7.8,1-12.4,0.5c-4.1-0.4-7.4-1.6-9.9-3.5c-2.5-1.9-4.3-4-5.4-6.5
			c-1.1-2.4-1.5-5-1.2-7.6c0.3-2.6,1.2-4.9,2.6-6.8c1-1.3,2.1-2.3,3.3-3.1c1.2-0.7,2.4-1.2,3.6-1.5c1.2-0.2,2.3-0.3,3.4-0.1
			c1.1,0.2,2.1,0.6,2.9,1.1c0.5-1.2,1.1-2.5,1.6-3.7c0.5-1.3,1-2.6,1.6-3.9c-0.8-0.5-1.7-1.3-2.6-2.4c-0.9-1.1-1.7-2.4-2.3-3.9
			c-0.7-1.5-1.1-3.1-1.4-4.9c-0.3-1.8-0.3-3.6,0.1-5.5c0.2-1.3,0.8-2.7,1.7-4.1c0.9-1.4,2.3-2.7,4.1-3.7c1.8-1.1,4.2-1.9,7.1-2.4
			C32.6,4.8,36.2,4.8,40.4,5.2z M6.9,44.5c2-2.1,4-3.4,6.1-4s4.2-0.6,6.3,0.1c-1.6-0.8-3-1.2-4.4-1.1c-1.4,0.1-2.6,0.5-3.7,1
			c-1.1,0.6-2,1.2-2.8,2.1C7.8,43.3,7.3,44,6.9,44.5z M18.3,41.2c-1-0.5-2.1-0.7-3.1-0.5c-1,0.1-2,0.4-2.8,0.8
			c-0.9,0.4-1.6,0.9-2.2,1.4c-0.6,0.5-1,1-1.3,1.3c1.5-1.3,3.1-2.2,4.8-2.8C15.3,40.8,16.9,40.7,18.3,41.2z M12.4,61
			c0.1-1.1,0.4-2.4,0.8-3.9c0.4-1.5,1-3.2,1.8-5.2c0.2-0.5,0.5-1.3,1-2.4c0.4-1.1,1-2.5,1.7-4c-1.8,0.2-3.3,0.9-4.5,2.1
			c-1.2,1.2-2.1,2.5-2.6,4.1s-0.6,3.2-0.4,4.9C10.4,58.2,11.2,59.7,12.4,61z M17.6,42c-0.9-0.3-1.7-0.4-2.5-0.3s-1.5,0.4-2.2,0.7
			c-0.7,0.3-1.2,0.7-1.7,1.2c-0.5,0.4-0.8,0.8-1,1.1c1.4-1.2,2.8-2,4-2.3C15.5,42,16.6,41.9,17.6,42z M20.6,64.6
			c3.5,0.4,6.8,0.1,9.7-0.8c3-0.9,5.5-2.2,7.6-3.8c2.1-1.6,3.7-3.4,4.7-5.4c1.1-2,1.4-3.9,1.1-5.7c-0.3-1.8-1.4-3.3-3.2-4.7
			c-1.8-1.3-4.6-2.1-8.3-2.3c-0.7,0-1.5-0.1-2.5-0.1c-1,0-1.9,0-2.8,0C25.5,45,24,48.3,22.4,52c-1.6,3.6-3.4,7.6-5.3,11.9
			C18.1,64.2,19.2,64.4,20.6,64.6z M24,8.4c-1.3,0.4-2.5,1.2-3.4,2.2c-1,1-1.7,2.3-2.2,3.7c-0.5,1.4-0.8,3-0.7,4.7
			c0,1.7,0.4,3.5,1,5.3c-0.6-3.4-0.5-6.5,0.4-9.4C20,12.1,21.7,9.9,24,8.4z M24.3,9.5c-1,0.6-1.8,1.4-2.6,2.3s-1.3,2-1.8,3.3
			c-0.4,1.2-0.7,2.6-0.8,4c-0.1,1.5,0.1,3,0.6,4.6c-0.3-3.1-0.1-5.9,0.8-8.4C21.5,12.9,22.7,11,24.3,9.5z M20.9,22.7
			c0-2.4,0.3-4.6,0.8-6.6c0.5-2,1.4-3.6,2.7-4.7c-1.5,0.9-2.5,2.4-3.2,4.5C20.5,18,20.4,20.2,20.9,22.7z M22,47.1
			c0.3-1,0.9-2.3,1.7-4.1c0.8-1.7,1.6-3.6,2.5-5.7c0.9-2.1,1.8-4.2,2.8-6.4c1-2.2,1.9-4.2,2.7-6c0.8-1.8,1.5-3.4,2.1-4.7
			c0.6-1.3,1-2.1,1.1-2.4c-0.5,0.8-1.2,1.9-1.9,3.3c-0.7,1.4-1.5,3-2.3,4.7c-0.8,1.7-1.7,3.6-2.6,5.5c-0.9,2-1.7,3.9-2.5,5.8
			c-0.8,1.9-1.5,3.7-2.1,5.5C22.9,44.3,22.4,45.8,22,47.1z M31.9,21.1c-0.6,0.9-1.3,2.3-2.3,4.1c-0.9,1.9-1.9,3.9-2.9,6.1
			c-1,2.2-1.9,4.4-2.8,6.6c-0.9,2.2-1.5,4-1.9,5.5c0.3-0.7,0.7-1.8,1.3-3.1c0.6-1.3,1.2-2.8,1.9-4.4c0.7-1.6,1.4-3.2,2.1-4.8
			c0.7-1.6,1.4-3.2,2.1-4.6c0.6-1.4,1.2-2.6,1.7-3.6C31.5,22,31.8,21.4,31.9,21.1z M37.2,16.2c-0.6,0.9-1.3,2.1-2.1,3.6
			s-1.7,3.3-2.6,5.2c-1,2-1.9,4-2.9,6.2c-1,2.2-1.9,4.4-2.8,6.5c-0.9,2.2-1.7,4.2-2.4,6.2c-0.7,2-1.3,3.6-1.7,5.1
			c0.4-1.1,1-2.6,1.9-4.5c0.9-2,1.8-4.1,2.8-6.4c1-2.3,2.1-4.7,3.2-7.2c1.1-2.4,2.1-4.7,3.1-6.8c1-2.1,1.8-3.8,2.4-5.3
			C36.7,17.4,37.1,16.6,37.2,16.2z M33.9,36.9c3-0.3,5.6-1.2,7.7-2.6c2.2-1.5,3.9-3.2,5.2-5.2c1.3-2,2.1-4.2,2.5-6.5
			c0.4-2.3,0.2-4.5-0.4-6.5c-0.6-2-1.8-3.8-3.5-5.2c-1.7-1.5-4-2.4-6.9-2.7c-2-0.2-3.7,0-5.2,0.7c-1.5,0.7-2.9,1.7-4,2.9
			c-1.2,1.3-2.1,2.7-2.9,4.4c-0.8,1.7-1.4,3.3-1.8,5c-0.4,1.7-0.7,3.3-0.8,4.9c-0.1,1.6,0,2.9,0.1,4.1c0.9-2.1,1.7-4.1,2.6-6
			c0.9-2,1.7-3.8,2.5-5.4c0.8-1.7,1.5-3.1,2.2-4.4c0.7-1.2,1.2-2.2,1.7-2.8c0.6-0.9,1.4-1.5,2.4-1.8c1-0.3,2-0.5,3-0.5
			c1,0,1.9,0.2,2.8,0.7c0.9,0.4,1.5,0.9,1.9,1.6c-0.6,0-1.3,0.4-2.1,1.3c-0.8,0.9-1.7,2.4-2.8,4.4c-1.1,2-2.3,4.7-3.8,7.9
			c-1.5,3.2-3.2,7.1-5.2,11.7c0,0,0.1,0,0.1,0c0,0,0.1,0,0.2,0c0,0,0.1-0.1,0.1-0.1c0.8,0,1.5,0,2.2,0
			C32.5,36.8,33.2,36.9,33.9,36.9z M43.1,58.3c1.5-1.4,2.6-2.9,3.2-4.4c0.6-1.5,0.9-2.9,0.8-4.3c0-1.3-0.4-2.5-1-3.6
			c-0.6-1-1.4-1.8-2.5-2.2c0.6,0.4,1.2,1,1.7,1.8c0.6,0.8,0.9,1.9,1.1,3.1c0.1,1.2,0,2.7-0.5,4.3C45.5,54.7,44.6,56.4,43.1,58.3z
			 M44.1,59.8c1.8-1.7,3-3.4,3.7-5.2c0.7-1.8,1.1-3.5,1-5.1c-0.1-1.6-0.5-3-1.2-4.2c-0.7-1.2-1.7-2.1-2.9-2.6
			c0.7,0.4,1.4,1.2,2.1,2.1c0.7,1,1.1,2.2,1.3,3.7c0.2,1.5,0,3.2-0.6,5.1C47,55.5,45.8,57.6,44.1,59.8z M44.9,60.8
			c2.1-1.9,3.6-3.9,4.5-5.8c0.9-2,1.3-3.8,1.2-5.6c-0.1-1.7-0.6-3.3-1.5-4.6c-0.9-1.3-2-2.3-3.4-2.9c0.8,0.5,1.6,1.3,2.4,2.4
			c0.8,1.1,1.3,2.5,1.5,4.1c0.2,1.6,0,3.5-0.6,5.6C48.4,56,47,58.3,44.9,60.8z M49.9,15.5c0.7,1.1,1.1,2.3,1.3,3.5
			c0.2,1.2,0.2,2.4,0.1,3.6c-0.1,1.2-0.4,2.4-0.8,3.5c-0.4,1.1-0.9,2.2-1.5,3.1c0.8-0.9,1.5-1.9,2.1-3.1c0.6-1.2,0.9-2.4,1.1-3.7
			c0.1-1.3,0-2.5-0.3-3.7C51.5,17.4,50.9,16.4,49.9,15.5z M51.2,14.2c0.8,1.3,1.3,2.7,1.7,4.1c0.3,1.4,0.4,2.9,0.4,4.3
			c-0.1,1.4-0.3,2.8-0.8,4.1c-0.4,1.3-1,2.5-1.8,3.5c0.9-1,1.7-2.2,2.2-3.6c0.6-1.4,0.9-2.8,1-4.3c0.1-1.5-0.1-3-0.5-4.4
			C53.1,16.6,52.3,15.3,51.2,14.2z M52.6,12.9c0.9,1.5,1.6,3.1,1.9,4.8c0.3,1.7,0.5,3.4,0.4,5c-0.1,1.6-0.4,3.2-0.9,4.7
			c-0.5,1.5-1.2,2.9-1.9,4c1.1-1.1,1.9-2.5,2.6-4.1c0.7-1.6,1-3.3,1.1-5c0.1-1.7-0.1-3.4-0.6-5.1C54.6,15.7,53.8,14.2,52.6,12.9z
			 M53.2,32.8c1.3-1.4,2.4-3,3.1-4.8c0.8-1.8,1.2-3.7,1.3-5.6c0.1-1.9-0.2-3.8-0.8-5.7c-0.7-1.9-1.8-3.5-3.3-4.9
			c1.3,1.4,2.2,3,2.6,4.9c0.5,1.9,0.7,3.8,0.6,5.7c-0.1,1.9-0.5,3.8-1.1,5.7C55,30,54.2,31.5,53.2,32.8z"/>
		<path class="st0" d="M81.5,42.6c0.5-0.6,0.9-1.1,1.4-1.2c0.4-0.2,0.7-0.2,1-0.1c0.2,0.1,0.4,0.4,0.4,0.8c0,0.4-0.2,0.9-0.5,1.4
			c-0.8,1.2-1.8,2.5-3,4c-1.2,1.5-2.4,2.9-3.7,4.3s-2.7,2.4-4.1,3.3c-1.4,0.9-2.7,1.3-3.9,1.3c-0.6,0-1.2-0.2-1.7-0.5
			c-0.2-0.1-0.4-0.3-0.6-0.6c-0.3-0.3-0.5-0.8-0.7-1.4c-1.5,1.4-3,2.3-4.6,2.5c-1.6,0.2-2.9,0-4.1-0.8c-1.1-0.8-1.9-2.1-2.2-4
			c-0.3-1.9,0-4.2,1-7.1c1-2.6,2.1-4.9,3.5-6.6c1.3-1.8,2.8-3.2,4.3-4.1c1.5-1,3.1-1.6,4.6-1.9c1.6-0.3,3.1-0.3,4.5,0.1
			c1.2,0.3,2.2,0.8,2.9,1.5c0.7,0.7,1.2,1.5,1.4,2.4c0.2,0.9,0.3,1.8,0.1,2.7c-0.1,0.9-0.5,1.7-1,2.3c0.2,0.2,0.4,0.6,0.5,1
			c-1.1,1.2-2.1,2.4-3,3.6c-0.9,1.2-1.7,2.3-2.3,3.3c-0.6,1-1.1,1.8-1.4,2.4c-0.3,0.6-0.3,1-0.1,1.1c0.8,0.4,2.2-0.2,4.1-1.8
			C76.4,48.9,78.7,46.2,81.5,42.6z M59.2,52.5c-0.2,0.9-0.1,1.6,0.3,2.1c0.4,0.5,0.9,0.9,1.6,1c0.7,0.1,1.4,0,2.3-0.4
			c0.8-0.4,1.6-1,2.3-1.9c-1.1,1-2.1,1.6-2.9,1.8c-0.8,0.2-1.5,0.2-2.1,0c-0.6-0.2-1-0.6-1.2-1.1C59.3,53.5,59.2,53,59.2,52.5z
			 M59.9,51.2c-0.2,1-0.1,1.8,0.2,2.3c0.3,0.5,0.8,0.8,1.4,0.9c0.6,0.1,1.3-0.1,2.1-0.4c0.8-0.3,1.5-0.9,2.2-1.6
			c-1.1,0.9-2.1,1.5-2.8,1.7c-0.8,0.2-1.4,0.1-1.8-0.1c-0.5-0.2-0.8-0.6-1-1.2C59.9,52.3,59.9,51.8,59.9,51.2z M60.9,49.7
			c-0.4,1.1-0.6,2-0.4,2.7c0.2,0.7,0.6,1.1,1.1,1.2c0.5,0.1,1.2,0,2-0.3c0.8-0.4,1.5-1,2.2-2c-1.2,1-2.2,1.6-2.9,1.8
			c-0.7,0.1-1.2,0.1-1.6-0.3c-0.3-0.3-0.5-0.8-0.6-1.4C60.8,50.7,60.8,50.2,60.9,49.7z M67,48.2c0.5-1.2,1.2-2.6,2.1-4.1
			c0.9-1.6,2-3.4,3.4-5.5c-0.1-0.6-0.5-1.1-1-1.2s-1.2,0-2,0.4c-0.8,0.5-1.7,1.3-2.8,2.5c-1,1.2-2.1,2.9-3.2,5
			c-1.1,2-1.7,3.5-1.9,4.7c-0.2,1.2,0,1.9,0.4,2.2c0.4,0.3,1.1,0.1,2-0.5C64.9,51,65.9,49.9,67,48.2z M76.1,34.6
			c-0.6-0.9-1.3-1.5-2.3-1.8c-0.9-0.3-1.9-0.5-2.9-0.5c-1,0-2,0.2-3,0.5c-1,0.3-1.7,0.6-2.4,1c2.3-0.8,4.4-1.1,6.1-0.9
			C73.2,33,74.7,33.6,76.1,34.6z M66.5,34.6c1.8-0.7,3.4-0.9,4.7-0.7c1.3,0.2,2.5,0.7,3.5,1.4c-0.4-0.7-1-1.1-1.8-1.4
			c-0.7-0.2-1.5-0.4-2.3-0.4c-0.8,0-1.6,0.1-2.3,0.3C67.6,34,67,34.3,66.5,34.6z M73.6,36.3c-0.3-0.5-0.8-0.8-1.3-1
			c-0.5-0.2-1-0.3-1.6-0.3c-0.5,0-1.1,0.1-1.6,0.3c-0.5,0.2-1,0.4-1.3,0.6c1.3-0.5,2.4-0.7,3.3-0.6C72.1,35.5,72.9,35.8,73.6,36.3z
			 M73,39.3c-0.3,0.2-0.6,0.6-1,1.1c-0.4,0.5-0.8,1.1-1.3,1.9c-0.5,0.7-0.9,1.5-1.4,2.4c-0.5,0.9-1,1.8-1.5,2.6
			c0.4-0.6,0.9-1.3,1.5-2.1c0.5-0.8,1.1-1.6,1.5-2.4c0.5-0.8,0.9-1.5,1.3-2.1C72.6,39.9,72.8,39.5,73,39.3z M73.3,40.4
			c-0.3,0.1-0.6,0.5-1,1c-0.4,0.5-0.8,1.2-1.3,1.9c-0.5,0.7-0.9,1.5-1.4,2.4c-0.5,0.9-1,1.8-1.4,2.6c0.4-0.6,0.9-1.3,1.5-2.1
			c0.5-0.8,1.1-1.7,1.5-2.5c0.5-0.8,0.9-1.5,1.3-2.1C72.8,41.1,73.1,40.7,73.3,40.4z M68.3,49.6c0.4-0.6,0.9-1.3,1.5-2.1
			c0.5-0.8,1.1-1.7,1.5-2.5c0.5-0.8,0.9-1.5,1.3-2.1c0.4-0.6,0.7-1,0.8-1.3c-0.3,0.1-0.6,0.5-1,1c-0.4,0.5-0.8,1.2-1.3,1.9
			c-0.5,0.7-0.9,1.5-1.4,2.4C69.3,47.8,68.8,48.7,68.3,49.6z"/>
		<path class="st0" d="M102.5,42.6c0.5-0.6,0.9-1.1,1.4-1.2c0.4-0.2,0.7-0.2,1-0.1c0.2,0.1,0.4,0.4,0.4,0.8s-0.2,0.9-0.5,1.4
			c-0.9,1.4-2.1,2.9-3.5,4.7c-1.5,1.8-3,3.4-4.5,4.9c-1.1,1.1-2.6,2-4.5,2.8c-1.9,0.8-4.3,0.9-7.2,0.6c-2-0.3-3.6-1.1-4.7-2.3
			c-1.1-1.3-1.8-2.7-2.1-4.4c-0.2-1.7,0-3.3,0.6-5c0.6-1.7,1.7-3.1,3.2-4.2c0.5-0.3,1.1-0.4,1.8-0.2c0.7,0.2,1.4,0.6,1.9,1.1
			c0.6,0.5,1.1,1.2,1.4,1.9c0.4,0.7,0.5,1.3,0.4,1.9c-1.2,0.1-2.1,0.6-2.9,1.3c-0.8,0.7-1.2,1.5-1.4,2.4c-0.2,0.9-0.1,1.7,0.2,2.5
			c0.3,0.8,1,1.3,2.1,1.6c1.1,0.3,2.1,0.1,3-0.7c0.9-0.8,1.6-1.7,2.1-3c0.3-0.8,0.4-1.5,0.3-2.2c-0.1-0.7-0.4-1.4-0.8-2.1
			c-0.4-0.7-0.9-1.3-1.5-1.9c-0.6-0.6-1.3-1.3-1.9-2c-1.3-1.2-2-2.3-2.3-3.4c-0.2-1.1-0.1-2.1,0.4-3c0.5-0.9,1.2-1.7,2.3-2.3
			c1-0.6,2.2-1.1,3.4-1.3c1.3-0.2,2.6-0.2,4,0c1.4,0.3,2.6,0.8,3.8,1.7c1.5,1.1,2.3,2.3,2.5,3.4c0.2,1.2,0,2.2-0.6,3
			c-0.6,0.9-1.5,1.5-2.6,1.9c-1.2,0.4-2.4,0.4-3.8-0.1c0.9-0.6,1.3-1.4,1.2-2.2c-0.1-0.9-0.4-1.6-0.9-2.3c-0.5-0.7-1.2-1.3-1.9-1.7
			c-0.7-0.4-1.3-0.4-1.8-0.1c-0.6,0.4-0.9,0.9-0.7,1.5s0.5,1.1,1.1,1.8c0.6,0.7,1.3,1.4,2.1,2.2c0.8,0.8,1.5,1.7,2.2,2.7
			c0.7,1,1.2,2,1.6,3.2c0.4,1.1,0.4,2.3,0.1,3.7c0.9-0.9,1.8-2,2.8-3.1C100.5,45.1,101.5,43.9,102.5,42.6z M80.9,51.4
			c0,1.1,0.5,1.9,1.2,2.6c0.8,0.6,1.7,1.1,2.7,1.2c1,0.2,2.1,0.1,3.1-0.2c1.1-0.3,1.9-0.9,2.5-1.8c-0.9,0.9-1.9,1.5-3,1.7
			c-1.1,0.2-2.1,0.1-3.1-0.2c-1-0.3-1.8-0.7-2.4-1.4C81.3,52.8,80.9,52.1,80.9,51.4z M90,52.4c-0.8,0.9-1.7,1.4-2.6,1.6
			c-0.9,0.2-1.7,0.1-2.5-0.1c-0.8-0.2-1.5-0.6-2-1.1c-0.6-0.5-0.9-1-1.1-1.6c0.2,1,0.6,1.7,1.4,2.2c0.7,0.5,1.5,0.8,2.3,0.9
			c0.9,0.1,1.7,0,2.5-0.4C88.9,53.7,89.6,53.1,90,52.4z M86.8,44.2c-0.4-0.4-1-0.4-1.9,0.1c-0.9,0.5-1.8,1.5-2.8,3
			C83.9,44.9,85.5,43.9,86.8,44.2z M89.6,51.7c-0.7,0.8-1.5,1.3-2.2,1.4c-0.8,0.2-1.5,0.2-2.1,0c-0.7-0.2-1.2-0.5-1.7-1
			c-0.5-0.5-0.7-0.9-0.8-1.4c0.1,0.9,0.5,1.5,1.1,2c0.6,0.4,1.3,0.7,2,0.8c0.7,0.1,1.4,0,2.1-0.3C88.7,52.8,89.2,52.3,89.6,51.7z
			 M82.9,47.5c1.6-2.1,2.9-3,4-2.8c-0.3-0.3-0.9-0.3-1.7,0.1C84.6,45.2,83.8,46.1,82.9,47.5z M94.8,49.7c0.2-1.1,0-2.3-0.5-3.7
			c-0.5-1.3-1.1-2.5-1.9-3.7c-0.7-1.1-1.4-2.1-2.1-2.9c-0.7-0.8-1.1-1.3-1.2-1.4C90.7,40,92,42,93,44.1C94,46.2,94.6,48.1,94.8,49.7
			z M95.9,49.1c0.1-1.1-0.1-2.3-0.7-3.6c-0.6-1.3-1.3-2.5-2.1-3.6c-0.8-1.1-1.6-2-2.4-2.8c-0.8-0.8-1.2-1.2-1.4-1.3
			c1.7,1.8,3.2,3.8,4.3,5.8C94.8,45.6,95.6,47.5,95.9,49.1z M96.5,48.4c0.1-1.2-0.1-2.4-0.7-3.6c-0.6-1.2-1.3-2.4-2.2-3.4
			c-0.9-1.1-1.7-1.9-2.4-2.6c-0.8-0.7-1.2-1.1-1.4-1.3c1.7,1.8,3.2,3.6,4.5,5.4C95.6,44.6,96.3,46.5,96.5,48.4z M91.1,33.7
			c-0.1,0-0.1-0.1-0.1,0C90.9,33.7,91,33.7,91.1,33.7c0.3,0,0.8,0.2,1.4,0.5c0.6,0.3,1.1,0.6,1.6,1.1c0.5,0.5,0.9,1.1,1.1,1.8
			c0.3,0.7,0.3,1.5,0.1,2.3c0.4-0.6,0.6-1.3,0.6-1.9c-0.1-0.7-0.3-1.2-0.8-1.8c-0.4-0.5-1-1-1.7-1.3C92.7,34,91.9,33.8,91.1,33.7z
			 M95.8,39.4c0.3-0.2,0.5-0.6,0.7-1.1c0.2-0.5,0.2-1.1,0-1.7c-0.2-0.6-0.6-1.2-1.2-1.8c-0.6-0.6-1.6-1-2.8-1.3
			c0.6,0.2,1.2,0.5,1.8,0.8c0.6,0.4,1,0.8,1.4,1.3c0.3,0.5,0.5,1.1,0.6,1.7C96.3,38.1,96.1,38.7,95.8,39.4z M96.6,39.5
			c0.6-0.6,0.9-1.2,0.9-1.8c0-0.6-0.1-1.2-0.3-1.7c-0.2-0.5-0.6-1-1.1-1.4c-0.5-0.4-0.9-0.7-1.4-0.8c0.9,0.6,1.5,1.2,1.9,1.8
			c0.4,0.6,0.6,1.1,0.6,1.7c0,0.5,0,1-0.2,1.4C96.9,39.1,96.7,39.4,96.6,39.5z"/>
		<path class="st0" d="M132,42.6c0.4-0.6,0.9-1.1,1.3-1.2c0.4-0.2,0.7-0.2,1-0.1c0.2,0.1,0.4,0.4,0.4,0.8s-0.2,0.9-0.5,1.4
			c-0.5,0.8-1.3,1.8-2.2,3.1c-0.9,1.3-2,2.6-3.1,4c-1.1,1.4-2.4,2.7-3.6,4c-1.3,1.3-2.5,2.5-3.8,3.4c-1.2,1-2.4,1.6-3.6,2
			c-1.1,0.4-2.1,0.3-2.9-0.1c-2.1-1.2-3.9-2.8-5.4-4.7c-1.5-1.9-2.8-3.8-3.8-5.7c-0.4,1.2-0.8,2.4-1.1,3.5c-0.3,1.1-0.6,2.1-0.9,2.9
			c-0.1,0.2-0.5,0.4-1.1,0.5c-0.6,0.1-1.3,0.1-2,0.1c-0.7,0-1.4-0.1-1.9-0.2c-0.6-0.1-0.8-0.3-0.8-0.5c0.6-2.1,1.3-4.4,2.1-7
			c0.8-2.6,1.7-5.2,2.6-7.9c1-2.7,2-5.4,3.2-8.2c1.1-2.7,2.3-5.3,3.6-7.7c1.2-2.4,2.6-4.6,4-6.6c1.4-2,2.8-3.6,4.4-4.9
			c2.3-2,4.6-3.1,6.6-3.5c2.1-0.4,3.6,0,4.7,1c1,1.1,1.4,2.8,1.1,5.2c-0.3,2.4-1.7,5.4-4.1,9c-0.6,1-1.3,1.9-2,2.8
			c-0.7,0.9-1.5,1.7-2.3,2.6c1-0.5,2.1-0.7,3.3-0.6s2.3,0.6,3.1,1.5c0.8,0.9,1.3,2.1,1.4,3.6c0.1,1.5-0.5,3.5-1.8,5.8
			c-0.8,1.5-1.8,2.8-3,3.9c-1.1,1.1-2.4,2.1-3.6,2.8c-1.3,0.8-2.6,1.3-3.9,1.7c-1.3,0.4-2.5,0.6-3.7,0.6c0.7,1.4,1.4,2.6,2.2,3.5
			c0.8,0.9,1.5,1.7,2.1,2.2c0.3,0.3,1,0.1,2.1-0.5c1-0.6,2.2-1.5,3.5-2.8c1.3-1.2,2.7-2.7,4.3-4.3C129.2,46.2,130.6,44.4,132,42.6z
			 M103,55c0.3-2.1,0.9-4.2,1.6-6.3c0.7-2.2,1.5-4.3,2.3-6.5c0.9-2.1,1.7-4.2,2.7-6.1c0.9-2,1.8-3.7,2.6-5.4c0.8-1.6,1.5-3,2.1-4.1
			c0.6-1.1,1-1.9,1.2-2.3c-1.2,1.8-2.5,4-3.9,6.6c-1.4,2.6-2.7,5.3-3.9,8.2c-1.2,2.8-2.3,5.7-3.2,8.5C103.6,50.4,103.1,52.9,103,55z
			 M106.4,49.5c0.7,1.5,1.5,2.9,2.4,4c0.9,1.2,1.8,2.2,2.7,3.1c0.9,0.9,1.7,1.6,2.5,2.1c0.8,0.5,1.4,0.9,1.8,1.1
			c-2.1-1.4-4-3-5.5-4.9C108.7,53,107.4,51.2,106.4,49.5z M115.2,58.2c-1.4-1-2.8-2.2-4.1-3.7c-1.3-1.5-2.3-2.9-3-4.2
			c0.5,1.3,1.2,2.4,1.9,3.3c0.7,1,1.4,1.8,2.1,2.4c0.7,0.7,1.3,1.2,1.9,1.5C114.5,57.9,114.9,58.1,115.2,58.2z M108.3,46.9
			c0.7,0.6,1.7,0.9,3,1c1.3,0.1,2.6-0.1,3.9-0.5c1.3-0.4,2.5-1.1,3.7-1.9c1.1-0.9,1.9-1.9,2.3-3.3c-1.2,1.7-2.4,2.9-3.8,3.7
			c-1.4,0.8-2.7,1.2-3.9,1.4c-1.2,0.2-2.3,0.2-3.3,0C109.3,47.2,108.6,47,108.3,46.9z M119.9,41.9c-1,1.5-2,2.5-3.2,3.2
			c-1.1,0.6-2.3,1-3.3,1.2c-1.1,0.1-2,0.1-2.8,0s-1.4-0.3-1.7-0.4c0.6,0.5,1.4,0.8,2.5,0.8c1.1,0.1,2.2-0.1,3.3-0.4
			c1.1-0.3,2.2-0.9,3.1-1.6C118.9,44,119.5,43,119.9,41.9z M119,39.9c0.4-0.9,0.5-1.6,0.2-2c-0.3-0.4-0.9-0.5-1.8-0.3
			c-0.9,0.2-2.1,0.7-3.5,1.5c-1.4,0.8-3,2-4.8,3.6c0,0-0.1-0.1-0.1-0.1c0.1,0.8,0.6,1.4,1.4,1.7c0.8,0.3,1.7,0.4,2.8,0.2
			s2.1-0.7,3.2-1.4C117.5,42.3,118.3,41.3,119,39.9z M115.2,57.1c-1.4-0.8-2.5-1.9-3.5-3.1c-1-1.2-1.8-2.4-2.4-3.4
			c0.8,2.1,1.8,3.6,3,4.7C113.3,56.3,114.3,56.9,115.2,57.1z M118.6,41.5c-0.8,1.2-1.6,2-2.6,2.5c-0.9,0.5-1.8,0.8-2.6,1
			c-0.8,0.1-1.6,0.1-2.2,0c-0.7-0.1-1.1-0.2-1.4-0.3c0.5,0.4,1.2,0.7,2.1,0.7c0.9,0,1.8-0.1,2.7-0.3c0.9-0.3,1.7-0.7,2.5-1.3
			C117.8,43.2,118.3,42.4,118.6,41.5z M121.3,23.8c0.5-0.8,0.9-1.6,1.1-2.3c0.2-0.8,0.2-1.3,0-1.7c-0.2-0.4-0.5-0.5-1.1-0.3
			c-0.5,0.2-1.3,0.9-2.2,2c-0.9,1.2-2.1,2.9-3.5,5.1c-1.4,2.3-3,5.3-4.8,9.1c2.2-1.9,4.1-3.8,5.8-5.8S120,25.9,121.3,23.8z
			 M128,10.8c-1.1-0.6-2.4-0.7-3.7-0.4c-1.3,0.3-2.7,1-4,1.8c-1.3,0.9-2.6,1.9-3.7,3.1c-1.2,1.2-2.1,2.4-2.8,3.6
			c1.5-2,3-3.5,4.3-4.7c1.4-1.1,2.7-2,3.9-2.6c1.2-0.6,2.3-0.9,3.3-1C126.3,10.6,127.2,10.6,128,10.8z M114.2,35.7
			c1.7-1.1,3.3-2.3,4.8-3.8c1.5-1.4,2.9-2.9,4-4.3c1.2-1.4,2.1-2.7,2.9-3.9c0.8-1.2,1.2-2,1.4-2.6c-0.5,0.6-1.1,1.4-1.9,2.5
			c-0.8,1.1-1.7,2.2-2.7,3.6c-1.1,1.3-2.3,2.7-3.7,4.2C117.7,32.8,116.1,34.2,114.2,35.7z M115.2,18.6c1.3-1.6,2.5-2.9,3.6-3.9
			c1.1-1,2.2-1.7,3.2-2.2c1-0.5,1.9-0.8,2.8-0.9c0.8-0.1,1.6-0.1,2.3,0.1c-1-0.4-2-0.5-3.2-0.2c-1.1,0.3-2.2,0.8-3.3,1.5
			c-1.1,0.7-2.1,1.6-3.1,2.6S115.8,17.7,115.2,18.6z M115.5,32.8c1-0.8,2-1.7,2.9-2.8c0.9-1.1,1.7-2.1,2.4-3.1
			c0.7-1,1.3-1.9,1.7-2.7c0.4-0.8,0.7-1.4,0.8-1.7c-0.3,0.4-0.6,1-1.1,1.8c-0.4,0.7-0.9,1.6-1.5,2.5c-0.6,0.9-1.3,1.9-2.2,2.9
			C117.6,30.7,116.6,31.8,115.5,32.8z M124.8,22.9c-0.3,0.4-0.8,1.1-1.3,1.8c-0.5,0.8-1.2,1.7-1.9,2.7c-0.8,1-1.6,2.1-2.6,3.2
			c-1,1.1-2.2,2.2-3.5,3.3c1.2-0.8,2.4-1.8,3.4-2.9c1.1-1.1,2-2.2,2.9-3.2c0.8-1.1,1.5-2,2-2.9S124.6,23.3,124.8,22.9z M126.5,13.1
			c-0.8-0.4-1.7-0.5-2.6-0.3c-0.9,0.2-1.9,0.6-2.8,1.2c-0.9,0.6-1.8,1.3-2.6,2.2c-0.8,0.9-1.5,1.7-2.1,2.7c1.1-1.4,2.1-2.5,3.1-3.3
			c1-0.8,1.9-1.5,2.8-1.9c0.9-0.4,1.7-0.7,2.4-0.7S125.9,13,126.5,13.1z M125.4,40.9c1.1-2.1,1.7-3.7,1.8-4.9c0.1-1.2,0-2.1-0.4-2.8
			c-0.4-0.6-0.9-1.1-1.5-1.3c-0.6-0.2-1.1-0.3-1.4-0.3c1.2,0.2,2,0.7,2.4,1.5c0.4,0.7,0.6,1.6,0.6,2.5s-0.2,1.8-0.5,2.8
			C126,39.4,125.7,40.2,125.4,40.9z M124.7,40.4c0.9-1.8,1.4-3.1,1.5-4.1c0.1-1,0-1.8-0.3-2.3s-0.7-0.9-1.1-1
			c-0.5-0.2-0.8-0.3-1.1-0.3c1,0.2,1.6,0.6,1.9,1.3c0.3,0.7,0.4,1.4,0.3,2.2c-0.1,0.8-0.3,1.6-0.6,2.4
			C125.1,39.3,124.9,39.9,124.7,40.4z M126.2,41.1c1.2-2.2,1.8-4,1.9-5.4c0.1-1.3-0.1-2.4-0.5-3.1c-0.4-0.7-1-1.2-1.6-1.4
			c-0.7-0.2-1.2-0.4-1.5-0.4c1.2,0.3,2.1,0.9,2.5,1.7c0.5,0.8,0.7,1.8,0.7,2.8c0,1-0.2,2-0.5,3.1C126.8,39.4,126.5,40.3,126.2,41.1z
			"/>
		<path class="st0" d="M155.9,42.7c0.4-0.6,0.9-1.1,1.3-1.3c0.4-0.2,0.8-0.3,1-0.2c0.3,0.1,0.4,0.4,0.4,0.7c0,0.4-0.1,0.8-0.4,1.4
			c-0.5,0.9-1.2,2-2.1,3.2c-0.9,1.2-1.9,2.4-3.1,3.6c-1.2,1.2-2.5,2.3-3.9,3.4c-1.4,1.1-2.9,1.9-4.5,2.5c-1.6,0.6-3.2,1-4.8,1.1
			c-1.6,0.1-3.2-0.2-4.8-1c-1.7-0.8-2.9-2.1-3.6-3.9s-0.9-3.6-0.7-5.7c0.2-2.1,0.8-4.2,1.7-6.3c0.9-2.1,2.1-3.9,3.6-5.4
			c1.5-1.5,3.2-2.6,5.2-3.2c2-0.6,4.1-0.6,6.3,0.2c1.4,0.5,2.4,1.4,3,2.5c0.6,1.1,0.9,2.4,0.8,3.8c-0.1,1.4-0.4,2.9-1.1,4.5
			c-0.6,1.5-1.5,3-2.6,4.4c-1.1,1.4-2.3,2.6-3.8,3.7c-1.4,1.1-3,1.8-4.7,2.2c1.3,0.4,2.7,0.5,4.2,0.1c1.5-0.4,2.9-1.1,4.4-2.1
			c1.5-1,2.9-2.2,4.3-3.6C153.5,45.9,154.8,44.4,155.9,42.7z M137.1,44.2c-1.6,1.9-2.4,3.4-2.6,4.8c-0.1,1.3,0.1,2.2,0.7,2.6
			c-0.4-0.5-0.6-1.1-0.6-1.8c0-0.7,0.2-1.5,0.5-2.2c0.3-0.7,0.6-1.4,1-2C136.6,44.8,136.9,44.4,137.1,44.2z M138.4,43.4
			c-1.8,2.2-2.8,4.1-3,5.7c-0.2,1.6,0.1,2.6,0.9,3.1c-0.5-0.6-0.8-1.3-0.7-2.2c0.1-0.9,0.3-1.7,0.6-2.6c0.3-0.9,0.7-1.7,1.2-2.4
			C137.8,44.2,138.1,43.7,138.4,43.4z M139.9,42.5c-2.1,2.5-3.3,4.7-3.5,6.5c-0.2,1.8,0.1,3,1,3.5c-0.6-0.6-0.9-1.5-0.8-2.5
			c0.1-1,0.3-2,0.7-3c0.4-1,0.9-1.9,1.4-2.8C139.3,43.5,139.6,42.9,139.9,42.5z M145.5,38.9c-0.5-0.3-1.2-0.1-2.1,0.5
			c-0.9,0.7-1.8,1.6-2.6,2.7c-0.9,1.1-1.7,2.4-2.4,3.7c-0.7,1.3-1.2,2.6-1.3,3.7c1.5-0.3,2.9-1.1,4.1-2.1c1.2-1.1,2.2-2.2,2.9-3.4
			c0.7-1.2,1.2-2.3,1.5-3.3C145.8,39.7,145.8,39.1,145.5,38.9z M145.2,43.2c-0.2,0.3-0.5,0.7-0.8,1.4c-0.4,0.6-0.9,1.2-1.5,1.9
			c-0.6,0.7-1.4,1.3-2.2,1.9c-0.9,0.6-1.8,1.2-3,1.5c0.6-0.1,1.3-0.3,2.1-0.7c0.8-0.4,1.5-0.9,2.2-1.5c0.7-0.6,1.3-1.3,1.9-2.1
			C144.5,44.9,144.9,44.1,145.2,43.2z M140.2,53.5c0.9,0.3,2.3,0.3,4.2-0.2c1.9-0.5,3.8-1.7,5.8-3.7c-0.2,0.2-0.7,0.5-1.4,1.1
			c-0.7,0.5-1.4,1-2.3,1.5c-0.9,0.5-1.9,0.9-3,1.2S141.3,53.7,140.2,53.5z M140.9,54.2c0.4,0.1,0.9,0.2,1.5,0.2
			c0.6,0,1.3-0.1,2.1-0.4c0.8-0.3,1.6-0.7,2.5-1.2c0.9-0.5,1.8-1.2,2.6-2.1c-0.2,0.2-0.7,0.5-1.2,1c-0.6,0.4-1.3,0.9-2.1,1.3
			s-1.7,0.8-2.6,1.1C142.8,54.2,141.8,54.3,140.9,54.2z M142,54.6c0.7,0.2,1.7,0.2,3-0.1c1.3-0.3,2.7-1.2,4.1-2.6
			c-0.2,0.1-0.5,0.4-1,0.8c-0.5,0.4-1,0.7-1.7,1.1c-0.6,0.3-1.3,0.6-2.1,0.8C143.6,54.7,142.8,54.7,142,54.6z M147.9,33.7
			c0.6,0.8,1.1,1.7,1.2,2.6c0.2,0.9,0.2,1.9,0.1,2.9c-0.1,1-0.4,2-0.8,3.1c-0.4,1.1-0.9,2.1-1.4,3.1c1.1-1.8,1.8-3.3,2.2-4.7
			c0.3-1.4,0.4-2.6,0.3-3.6c-0.1-1-0.4-1.7-0.7-2.3C148.4,34.3,148.1,33.9,147.9,33.7z M147.7,45.4c1.1-1.8,1.8-3.4,2.2-4.8
			c0.3-1.4,0.4-2.5,0.3-3.5c-0.1-1-0.4-1.7-0.7-2.3c-0.4-0.6-0.7-0.9-0.9-1.1c0.6,0.8,1.1,1.7,1.2,2.6c0.2,0.9,0.2,1.9,0.1,2.9
			c-0.1,1-0.4,2-0.8,3.1C148.6,43.4,148.2,44.4,147.7,45.4z M148.3,45.3c1.1-1.8,1.8-3.3,2.2-4.7c0.3-1.4,0.4-2.6,0.3-3.6
			c-0.1-1-0.4-1.7-0.7-2.3c-0.3-0.6-0.6-0.9-0.9-1.1c0.6,0.8,1.1,1.7,1.2,2.6c0.2,0.9,0.2,1.9,0.1,2.9c-0.1,1-0.4,2-0.8,3.1
			C149.2,43.3,148.7,44.3,148.3,45.3z"/>
		<path class="st0" d="M182.7,21.8c0.4,0.1,0.9,0.5,1.4,1c0.5,0.5,0.9,1,1.3,1.6c0.4,0.6,0.7,1.2,1,1.7c0.3,0.5,0.5,0.9,0.5,1
			c-1.2-0.2-3.2-0.4-5.9-0.5s-6.1-0.1-10.2,0c-2.3,3.7-4.3,7.1-6.1,10.2c-1.8,3.1-3.4,5.8-4.6,8c-1.2,2.3-2.2,4-2.7,5.4
			c-0.6,1.3-0.7,2.1-0.3,2.3c0.7,0.4,1.8-0.2,3.2-1.7c1.5-1.5,3.6-4.3,6.5-8.2c0.4-0.6,0.9-1.1,1.3-1.2c0.4-0.2,0.8-0.2,1-0.1
			c0.3,0.1,0.4,0.4,0.4,0.8c0,0.4-0.1,0.8-0.5,1.3c-0.8,1.2-1.8,2.6-2.9,4.1c-1.1,1.5-2.2,2.9-3.4,4.3c-1.2,1.3-2.5,2.4-3.7,3.3
			s-2.4,1.4-3.5,1.4c-0.9,0-1.6-0.3-2.2-0.9c-0.6-0.6-0.9-1.6-1-2.9c0-1.3,0.3-3.1,0.9-5.2c0.7-2.1,1.8-4.6,3.4-7.6
			c1-1.9,2.1-4,3.5-6.4c1.3-2.4,2.6-4.7,3.7-6.7c-1.1,0-2.2,0.1-3.2,0.1c-1.1,0-2.2,0-3.3,0c-0.2-0.1-0.4-0.4-0.6-0.8
			c-0.2-0.4-0.4-0.7-0.6-1.1c-0.2-0.4-0.3-0.8-0.4-1.2s-0.2-0.7-0.2-0.9c1-0.1,2.4-0.2,4.4-0.4c2-0.1,4.2-0.3,6.6-0.4
			c0.2-0.5,0.5-0.9,0.7-1.4c0.2-0.4,0.5-0.8,0.7-1.2c0.3-0.6,1-1.1,2.1-1.7c1.1-0.5,2.1-0.9,3.1-1.1c1-0.2,1.8-0.2,2.5,0
			c0.6,0.2,0.7,0.7,0.3,1.4c-0.4,0.6-0.8,1.2-1.1,1.8c-0.3,0.6-0.7,1.2-1.1,1.8c2.1,0,3.8-0.1,5.2-0.1
			C180.4,21.6,181.6,21.7,182.7,21.8z M168.2,28.2c-0.3,0.3-0.9,0.9-1.6,1.9c-0.7,1-1.5,2.2-2.4,3.6c-0.9,1.4-1.8,3-2.7,4.6
			c-0.9,1.7-1.8,3.2-2.6,4.7c-0.8,1.5-1.4,2.8-1.9,4c-0.5,1.2-0.7,2-0.7,2.5c0-0.6,0.4-1.5,1-2.7c0.6-1.2,1.3-2.6,2.1-4.1
			c0.8-1.5,1.7-3.1,2.7-4.7c1-1.6,1.9-3.2,2.8-4.5c0.9-1.4,1.6-2.6,2.2-3.6C167.7,29.1,168.1,28.5,168.2,28.2z M156.6,51.3
			c0-0.6,0.4-1.7,1.1-3c0.7-1.4,1.5-2.9,2.4-4.7c0.9-1.7,1.9-3.5,3-5.4c1.1-1.9,2.1-3.6,3.1-5.1c1-1.6,1.8-2.9,2.5-4
			c0.7-1.1,1.1-1.8,1.3-2.1c-0.4,0.3-1,1-1.8,2.2c-0.8,1.2-1.7,2.5-2.7,4.1c-1,1.6-2,3.4-3.1,5.2c-1.1,1.9-2,3.6-2.9,5.3
			c-0.9,1.7-1.6,3.2-2.1,4.5C156.8,49.7,156.6,50.7,156.6,51.3z M166.6,29.3c-0.2,0.2-0.7,0.7-1.2,1.6c-0.6,0.9-1.2,1.9-2,3
			c-0.7,1.2-1.5,2.4-2.3,3.8c-0.8,1.4-1.5,2.7-2.1,3.9c-0.6,1.2-1.2,2.3-1.6,3.3c-0.4,1-0.6,1.7-0.6,2.1c0-0.4,0.3-1.2,0.8-2.2
			c0.5-1,1.1-2.1,1.8-3.4c0.7-1.2,1.5-2.5,2.3-3.9c0.8-1.3,1.6-2.6,2.3-3.7c0.7-1.1,1.3-2.1,1.8-2.9C166.2,30,166.5,29.5,166.6,29.3
			z M175.1,18.6c0.1-0.3,0.1-0.6-0.1-0.7s-0.5-0.2-0.8-0.2c-0.3,0-0.7,0-1,0.1c-0.3,0.1-0.6,0.1-0.7,0.2c0.7-0.1,1.2-0.1,1.6-0.1
			c0.4,0,0.6,0.1,0.8,0.2c0.1,0.1,0.2,0.2,0.3,0.3C175.1,18.4,175.1,18.5,175.1,18.6z M175.5,18.3c0.2-0.4,0.2-0.6-0.1-0.8
			c-0.2-0.1-0.6-0.2-1-0.2c-0.4,0-0.8,0-1.2,0.1c-0.4,0.1-0.6,0.1-0.7,0.2c0.8-0.1,1.4-0.2,1.8-0.2c0.4,0,0.7,0.1,0.9,0.2
			c0.2,0.1,0.3,0.2,0.3,0.3C175.5,18.1,175.5,18.2,175.5,18.3z M175.8,17.9c0.2-0.4,0.2-0.7-0.1-0.8c-0.2-0.2-0.6-0.3-1-0.3
			c-0.4,0-0.8,0-1.2,0.1c-0.4,0.1-0.7,0.2-0.8,0.4c0.8-0.1,1.5-0.2,1.9-0.2c0.4,0,0.7,0.1,0.9,0.2c0.2,0.1,0.3,0.2,0.3,0.3
			C175.8,17.7,175.8,17.8,175.8,17.9z M172.7,23.6c1.7,0,3-0.1,4-0.1s1.8,0,2.4,0c0.6,0,1,0,1.4,0.1c0.3,0,0.6,0,0.9,0
			c-0.2-0.2-0.7-0.3-1.3-0.4c-0.6,0-1.3-0.1-2.1,0s-1.7,0.1-2.6,0.1C174.5,23.5,173.6,23.6,172.7,23.6z M172.8,22.9
			c1.7,0,3.1-0.1,4.2-0.1c1.1,0,2,0,2.8,0c0.7,0,1.3,0.1,1.7,0.1c0.4,0,0.7,0.1,1,0.1c-0.3-0.2-0.9-0.3-1.6-0.4
			c-0.7-0.1-1.5-0.1-2.4-0.1c-0.9,0-1.8,0.1-2.8,0.1C174.7,22.8,173.7,22.8,172.8,22.9z M173.4,22.2c1.9,0,3.4-0.1,4.5,0
			c1.1,0,2,0,2.7,0.1s1.2,0.1,1.5,0.1c0.3,0,0.7,0.1,1,0.1c-0.7-0.3-2-0.4-3.9-0.4C177.4,22.1,175.4,22.1,173.4,22.2z"/>
		<path class="st0" d="M229.5,16.9c0.2,1.2,0.7,2,1.6,2.2c0.9,0.2,1.7,0.1,2.5-0.3c0.8-0.5,1.3-1.2,1.7-2.2c0.3-1,0.1-2.1-0.8-3.3
			c-0.6-0.9-1.8-1.5-3.3-1.8c-1.6-0.3-3.5-0.1-5.8,0.6c-2.3,0.7-4.9,2.1-7.8,4.1c-2.9,2-5.9,4.9-9.1,8.7c-2.6,3.1-4.9,6.5-6.7,10.2
			c-1.8,3.7-3,7.3-3.7,10.8c-0.7,3.5-0.6,6.7,0,9.6c0.7,2.9,2.2,5.1,4.5,6.6c1.7,1,3.7,1.3,6.2,1c2.5-0.4,5.1-1.4,8-3.1
			c2.9-1.7,5.8-4,8.9-7c3.1-3,6.1-6.5,9-10.7c0.5-0.6,0.9-1.1,1.3-1.2c0.4-0.2,0.7-0.2,0.9-0.1c0.2,0.1,0.3,0.4,0.3,0.8
			c0,0.4-0.2,0.9-0.6,1.5c-2.8,4.8-5.7,8.8-8.8,12.1c-3.1,3.3-6.1,5.9-9.2,7.8c-3.1,1.9-6,3.1-9,3.6c-2.9,0.5-5.6,0.4-8.2-0.3
			c-3.3-0.9-5.9-2.5-7.8-4.8c-1.9-2.3-3.1-5-3.8-8s-0.7-6.4-0.1-10c0.5-3.6,1.6-7.2,3.1-10.8c1.5-3.6,3.5-7.1,5.9-10.5
			c2.4-3.4,5.2-6.3,8.3-8.9c3.1-2.6,6.6-4.7,10.3-6.2C221,5.8,225,5,229.2,5c3.1,0,5.6,0.5,7.6,1.6c2,1.1,3.4,2.4,4.3,4
			c0.9,1.6,1.4,3.4,1.4,5.2c0,1.9-0.3,3.6-1.1,5.2c-0.8,1.6-1.9,3-3.3,4.1c-1.4,1.1-3.2,1.7-5.2,1.7c-1.9,0-3.4-0.3-4.4-1.2
			c-1-0.8-1.7-1.8-1.9-2.9s-0.1-2.2,0.4-3.3C227.6,18.4,228.4,17.5,229.5,16.9z M204,66.3c-2.8-0.6-5.1-1.7-6.8-3.2
			c-1.7-1.5-3-3.3-3.9-5.3c-0.9-2-1.4-4.2-1.5-6.6c-0.1-2.3,0-4.7,0.4-7.1c0.4-2.4,1-4.7,1.8-6.9c0.8-2.2,1.7-4.2,2.7-5.9
			c-1.1,1.4-2.2,3.1-3.1,5.2c-0.9,2.1-1.6,4.4-2.1,6.8s-0.6,4.9-0.5,7.4c0.1,2.5,0.7,4.8,1.6,6.9s2.3,4,4.2,5.5
			C198.6,64.8,201,65.8,204,66.3z M202,64.2c-2.1-1-3.7-2.2-4.9-3.7c-1.2-1.5-2.1-3.2-2.6-4.9c-0.5-1.8-0.8-3.6-0.7-5.5
			c0-1.9,0.2-3.7,0.6-5.4c0.3-1.7,0.8-3.3,1.3-4.8c0.5-1.5,1.1-2.7,1.6-3.6c-0.9,1.1-1.7,2.5-2.4,4.2c-0.7,1.7-1.2,3.5-1.5,5.4
			c-0.3,1.9-0.4,3.8-0.3,5.7c0.1,1.9,0.5,3.7,1.2,5.4c0.7,1.7,1.6,3.2,2.9,4.4C198.5,62.8,200.1,63.7,202,64.2z M200.6,62.1
			c-1.5-1.3-2.6-2.9-3.3-4.6c-0.7-1.8-1.1-3.6-1.2-5.6s0.1-4,0.6-6.1c0.5-2.1,1.1-4,2-5.9c-1.4,1.9-2.3,4-2.8,6.2
			c-0.5,2.2-0.7,4.4-0.4,6.5c0.2,2.1,0.8,4,1.7,5.7C198,60,199.2,61.3,200.6,62.1z M236.5,12.5c1.1,1.7,1.4,3.4,1.1,5
			c-0.3,1.6-1.2,3-2.5,4.2c1.1-0.8,1.8-1.6,2.2-2.5c0.4-0.9,0.6-1.8,0.6-2.6c0-0.9-0.1-1.6-0.4-2.3
			C237.3,13.4,236.9,12.9,236.5,12.5z M235.3,24c1.6-1.2,2.7-2.4,3.3-3.7c0.6-1.3,0.9-2.6,0.9-3.8s-0.2-2.3-0.7-3.4
			c-0.5-1-1-1.8-1.5-2.3c1.6,2.5,2.1,4.9,1.6,7.2C238.5,20.3,237.2,22.3,235.3,24z M236.3,25.4c1.9-1.4,3.2-2.9,4-4.5
			c0.7-1.6,1.1-3.2,1.1-4.7s-0.3-2.8-0.8-4.1c-0.5-1.2-1.2-2.2-1.8-2.9c1.9,3.1,2.6,6,2,8.8C240.1,20.8,238.7,23.3,236.3,25.4z"/>
		<path class="st0" d="M258.6,42.6c0.5-0.6,0.9-1.1,1.4-1.2c0.4-0.2,0.7-0.2,1-0.1c0.2,0.1,0.4,0.4,0.4,0.8c0,0.4-0.2,0.9-0.5,1.4
			c-0.8,1.2-1.8,2.5-3,4c-1.2,1.5-2.4,2.9-3.7,4.3c-1.3,1.3-2.7,2.4-4.1,3.3c-1.4,0.9-2.7,1.3-3.9,1.3c-0.6,0-1.2-0.2-1.7-0.5
			c-0.2-0.1-0.4-0.3-0.6-0.6c-0.3-0.3-0.5-0.8-0.7-1.4c-1.5,1.4-3,2.3-4.6,2.5c-1.6,0.2-2.9,0-4.1-0.8c-1.1-0.8-1.9-2.1-2.2-4
			c-0.3-1.9,0-4.2,1-7.1c1-2.6,2.1-4.9,3.5-6.6c1.3-1.8,2.8-3.2,4.3-4.1c1.5-1,3.1-1.6,4.6-1.9c1.6-0.3,3.1-0.3,4.5,0.1
			c1.2,0.3,2.2,0.8,2.9,1.5c0.7,0.7,1.2,1.5,1.4,2.4c0.2,0.9,0.3,1.8,0.1,2.7c-0.1,0.9-0.5,1.7-1,2.3c0.2,0.2,0.4,0.6,0.5,1
			c-1.1,1.2-2.1,2.4-3,3.6c-0.9,1.2-1.7,2.3-2.3,3.3c-0.6,1-1.1,1.8-1.4,2.4s-0.3,1-0.1,1.1c0.8,0.4,2.2-0.2,4.1-1.8
			C253.5,48.9,255.8,46.2,258.6,42.6z M236.3,52.5c-0.2,0.9-0.1,1.6,0.3,2.1c0.4,0.5,0.9,0.9,1.6,1c0.7,0.1,1.4,0,2.3-0.4
			c0.8-0.4,1.6-1,2.3-1.9c-1.1,1-2.1,1.6-2.9,1.8c-0.8,0.2-1.5,0.2-2.1,0s-1-0.6-1.2-1.1C236.4,53.5,236.3,53,236.3,52.5z M237,51.2
			c-0.2,1-0.1,1.8,0.2,2.3c0.3,0.5,0.8,0.8,1.4,0.9c0.6,0.1,1.3-0.1,2.1-0.4c0.8-0.3,1.5-0.9,2.2-1.6c-1.1,0.9-2.1,1.5-2.8,1.7
			c-0.8,0.2-1.4,0.1-1.8-0.1c-0.5-0.2-0.8-0.6-1-1.2C237,52.3,236.9,51.8,237,51.2z M238,49.7c-0.4,1.1-0.6,2-0.4,2.7
			c0.2,0.7,0.6,1.1,1.1,1.2c0.5,0.1,1.2,0,2-0.3c0.8-0.4,1.5-1,2.2-2c-1.2,1-2.2,1.6-2.9,1.8c-0.7,0.1-1.2,0.1-1.6-0.3
			c-0.3-0.3-0.5-0.8-0.5-1.4C237.9,50.7,237.9,50.2,238,49.7z M244,48.2c0.5-1.2,1.2-2.6,2.1-4.1c0.9-1.6,2-3.4,3.4-5.5
			c-0.1-0.6-0.5-1.1-1-1.2s-1.2,0-2,0.4c-0.8,0.5-1.7,1.3-2.8,2.5c-1,1.2-2.1,2.9-3.2,5c-1.1,2-1.7,3.5-1.9,4.7
			c-0.2,1.2,0,1.9,0.4,2.2c0.4,0.3,1.1,0.1,2-0.5C242,51,242.9,49.9,244,48.2z M253.1,34.6c-0.6-0.9-1.3-1.5-2.3-1.8
			c-0.9-0.3-1.9-0.5-2.9-0.5c-1,0-2,0.2-3,0.5c-1,0.3-1.7,0.6-2.4,1c2.3-0.8,4.4-1.1,6.1-0.9C250.3,33,251.8,33.6,253.1,34.6z
			 M243.6,34.6c1.8-0.7,3.4-0.9,4.7-0.7c1.3,0.2,2.5,0.7,3.5,1.4c-0.4-0.7-1-1.1-1.8-1.4c-0.7-0.2-1.5-0.4-2.3-0.4
			c-0.8,0-1.6,0.1-2.3,0.3C244.7,34,244.1,34.3,243.6,34.6z M250.6,36.3c-0.3-0.5-0.8-0.8-1.3-1c-0.5-0.2-1-0.3-1.6-0.3
			s-1.1,0.1-1.6,0.3c-0.5,0.2-1,0.4-1.3,0.6c1.3-0.5,2.4-0.7,3.3-0.6C249.1,35.5,249.9,35.8,250.6,36.3z M250.1,39.3
			c-0.3,0.2-0.6,0.6-1,1.1c-0.4,0.5-0.8,1.1-1.3,1.9c-0.5,0.7-0.9,1.5-1.4,2.4c-0.5,0.9-1,1.8-1.5,2.6c0.4-0.6,0.9-1.3,1.5-2.1
			c0.5-0.8,1.1-1.6,1.5-2.4c0.5-0.8,0.9-1.5,1.3-2.1C249.6,39.9,249.9,39.5,250.1,39.3z M250.3,40.4c-0.3,0.1-0.6,0.5-1,1
			c-0.4,0.5-0.8,1.2-1.3,1.9c-0.5,0.7-0.9,1.5-1.4,2.4c-0.5,0.9-1,1.8-1.4,2.6c0.4-0.6,0.9-1.3,1.5-2.1c0.5-0.8,1.1-1.7,1.5-2.5
			c0.5-0.8,0.9-1.5,1.3-2.1C249.9,41.1,250.2,40.7,250.3,40.4z M245.4,49.6c0.4-0.6,0.9-1.3,1.5-2.1c0.5-0.8,1.1-1.7,1.5-2.5
			c0.5-0.8,0.9-1.5,1.3-2.1c0.4-0.6,0.7-1,0.8-1.3c-0.3,0.1-0.6,0.5-1,1c-0.4,0.5-0.8,1.2-1.3,1.9c-0.5,0.7-0.9,1.5-1.4,2.4
			C246.3,47.8,245.9,48.7,245.4,49.6z"/>
		<path class="st0" d="M279.5,42.6c0.5-0.6,0.9-1.1,1.4-1.2c0.4-0.2,0.7-0.2,1-0.1c0.2,0.1,0.4,0.4,0.4,0.8s-0.2,0.9-0.5,1.4
			c-0.9,1.4-2.1,2.9-3.5,4.7c-1.5,1.8-3,3.4-4.5,4.9c-1.1,1.1-2.6,2-4.5,2.8c-1.9,0.8-4.3,0.9-7.2,0.6c-2-0.3-3.6-1.1-4.7-2.3
			c-1.1-1.3-1.8-2.7-2.1-4.4c-0.2-1.7,0-3.3,0.6-5c0.6-1.7,1.7-3.1,3.2-4.2c0.5-0.3,1.1-0.4,1.8-0.2c0.7,0.2,1.4,0.6,1.9,1.1
			c0.6,0.5,1.1,1.2,1.4,1.9c0.4,0.7,0.5,1.3,0.4,1.9c-1.2,0.1-2.1,0.6-2.9,1.3c-0.8,0.7-1.2,1.5-1.4,2.4c-0.2,0.9-0.1,1.7,0.2,2.5
			c0.3,0.8,1,1.3,2.1,1.6c1.1,0.3,2.1,0.1,3-0.7c0.9-0.8,1.6-1.7,2.1-3c0.3-0.8,0.4-1.5,0.3-2.2c-0.1-0.7-0.4-1.4-0.8-2.1
			c-0.4-0.7-0.9-1.3-1.5-1.9c-0.6-0.6-1.3-1.3-1.9-2c-1.3-1.2-2-2.3-2.3-3.4c-0.2-1.1-0.1-2.1,0.4-3c0.5-0.9,1.2-1.7,2.3-2.3
			c1-0.6,2.2-1.1,3.4-1.3c1.3-0.2,2.6-0.2,4,0c1.4,0.3,2.6,0.8,3.8,1.7c1.5,1.1,2.3,2.3,2.5,3.4c0.2,1.2,0,2.2-0.6,3
			c-0.6,0.9-1.5,1.5-2.6,1.9c-1.2,0.4-2.4,0.4-3.8-0.1c0.9-0.6,1.3-1.4,1.2-2.2c-0.1-0.9-0.4-1.6-0.9-2.3c-0.5-0.7-1.2-1.3-1.9-1.7
			c-0.7-0.4-1.3-0.4-1.8-0.1c-0.6,0.4-0.9,0.9-0.7,1.5c0.1,0.5,0.5,1.1,1.1,1.8c0.6,0.7,1.3,1.4,2.1,2.2c0.8,0.8,1.5,1.7,2.2,2.7
			c0.7,1,1.2,2,1.6,3.2c0.4,1.1,0.4,2.3,0.1,3.7c0.9-0.9,1.8-2,2.8-3.1C277.6,45.1,278.6,43.9,279.5,42.6z M258,51.4
			c0,1.1,0.5,1.9,1.2,2.6c0.8,0.6,1.7,1.1,2.7,1.2c1,0.2,2.1,0.1,3.1-0.2c1.1-0.3,1.9-0.9,2.5-1.8c-0.9,0.9-1.9,1.5-3,1.7
			c-1.1,0.2-2.1,0.1-3.1-0.2c-1-0.3-1.8-0.7-2.4-1.4C258.4,52.8,258,52.1,258,51.4z M267.1,52.4c-0.8,0.9-1.7,1.4-2.6,1.6
			c-0.9,0.2-1.7,0.1-2.5-0.1c-0.8-0.2-1.5-0.6-2-1.1c-0.6-0.5-0.9-1-1.1-1.6c0.2,1,0.6,1.7,1.4,2.2c0.7,0.5,1.5,0.8,2.3,0.9
			c0.9,0.1,1.7,0,2.5-0.4C266,53.7,266.6,53.1,267.1,52.4z M263.9,44.2c-0.4-0.4-1-0.4-1.9,0.1s-1.8,1.5-2.8,3
			C261,44.9,262.5,43.9,263.9,44.2z M266.7,51.7c-0.7,0.8-1.5,1.3-2.2,1.4c-0.8,0.2-1.5,0.2-2.1,0c-0.7-0.2-1.2-0.5-1.7-1
			c-0.5-0.5-0.7-0.9-0.8-1.4c0.1,0.9,0.5,1.5,1.1,2c0.6,0.4,1.3,0.7,2,0.8s1.4,0,2.1-0.3C265.8,52.8,266.3,52.3,266.7,51.7z
			 M260,47.5c1.6-2.1,2.9-3,4-2.8c-0.3-0.3-0.9-0.3-1.7,0.1C261.6,45.2,260.8,46.1,260,47.5z M271.9,49.7c0.2-1.1,0-2.3-0.5-3.7
			c-0.5-1.3-1.1-2.5-1.9-3.7c-0.7-1.1-1.4-2.1-2.1-2.9c-0.7-0.8-1.1-1.3-1.2-1.4c1.6,1.9,2.9,3.8,3.9,5.9
			C271.1,46.2,271.7,48.1,271.9,49.7z M272.9,49.1c0.1-1.1-0.1-2.3-0.7-3.6c-0.6-1.3-1.3-2.5-2.1-3.6c-0.8-1.1-1.6-2-2.4-2.8
			c-0.8-0.8-1.2-1.2-1.4-1.3c1.7,1.8,3.2,3.8,4.3,5.8C271.9,45.6,272.6,47.5,272.9,49.1z M273.6,48.4c0.1-1.2-0.1-2.4-0.7-3.6
			c-0.6-1.2-1.3-2.4-2.2-3.4c-0.9-1.1-1.7-1.9-2.4-2.6c-0.8-0.7-1.2-1.1-1.4-1.3c1.7,1.8,3.2,3.6,4.5,5.4
			C272.7,44.6,273.4,46.5,273.6,48.4z M268.2,33.7c-0.1,0-0.1-0.1-0.1,0C268,33.7,268.1,33.7,268.2,33.7c0.3,0,0.8,0.2,1.4,0.5
			c0.6,0.3,1.1,0.6,1.6,1.1c0.5,0.5,0.9,1.1,1.1,1.8c0.3,0.7,0.3,1.5,0.1,2.3c0.4-0.6,0.6-1.3,0.6-1.9c-0.1-0.7-0.3-1.2-0.8-1.8
			s-1-1-1.7-1.3C269.8,34,269,33.8,268.2,33.7z M272.9,39.4c0.3-0.2,0.5-0.6,0.7-1.1c0.2-0.5,0.2-1.1,0-1.7
			c-0.2-0.6-0.6-1.2-1.2-1.8c-0.6-0.6-1.6-1-2.8-1.3c0.6,0.2,1.2,0.5,1.8,0.8c0.6,0.4,1,0.8,1.4,1.3c0.3,0.5,0.5,1.1,0.6,1.7
			S273.2,38.7,272.9,39.4z M273.7,39.5c0.6-0.6,0.9-1.2,0.9-1.8c0-0.6-0.1-1.2-0.3-1.7c-0.2-0.5-0.6-1-1.1-1.4
			c-0.5-0.4-0.9-0.7-1.4-0.8c0.9,0.6,1.5,1.2,1.9,1.8c0.4,0.6,0.6,1.1,0.6,1.7s0,1-0.2,1.4C274,39.1,273.8,39.4,273.7,39.5z"/>
		<path class="st0" d="M303.5,42.7c0.4-0.6,0.9-1.1,1.3-1.3c0.4-0.2,0.8-0.3,1-0.2c0.3,0.1,0.4,0.4,0.4,0.7c0,0.4-0.1,0.8-0.4,1.4
			c-0.5,0.9-1.2,2-2.1,3.2c-0.9,1.2-1.9,2.4-3.1,3.6c-1.2,1.2-2.5,2.3-3.9,3.4c-1.4,1.1-2.9,1.9-4.5,2.5c-1.6,0.6-3.2,1-4.8,1.1
			c-1.6,0.1-3.2-0.2-4.8-1c-1.7-0.8-2.9-2.1-3.6-3.9s-0.9-3.6-0.7-5.7c0.2-2.1,0.8-4.2,1.7-6.3s2.1-3.9,3.6-5.4
			c1.5-1.5,3.2-2.6,5.2-3.2c2-0.6,4.1-0.6,6.3,0.2c1.4,0.5,2.4,1.4,3,2.5c0.6,1.1,0.9,2.4,0.8,3.8c-0.1,1.4-0.4,2.9-1.1,4.5
			s-1.5,3-2.6,4.4c-1.1,1.4-2.3,2.6-3.8,3.7c-1.4,1.1-3,1.8-4.7,2.2c1.3,0.4,2.7,0.5,4.2,0.1c1.5-0.4,2.9-1.1,4.4-2.1
			c1.5-1,2.9-2.2,4.3-3.6C301.1,45.9,302.3,44.4,303.5,42.7z M284.7,44.2c-1.6,1.9-2.4,3.4-2.6,4.8c-0.1,1.3,0.1,2.2,0.7,2.6
			c-0.4-0.5-0.6-1.1-0.6-1.8c0-0.7,0.2-1.5,0.5-2.2c0.3-0.7,0.6-1.4,1-2C284.2,44.8,284.5,44.4,284.7,44.2z M285.9,43.4
			c-1.8,2.2-2.8,4.1-3,5.7c-0.2,1.6,0.1,2.6,0.9,3.1c-0.5-0.6-0.8-1.3-0.7-2.2c0.1-0.9,0.3-1.7,0.6-2.6c0.3-0.9,0.7-1.7,1.2-2.4
			C285.3,44.2,285.7,43.7,285.9,43.4z M287.5,42.5c-2.1,2.5-3.3,4.7-3.5,6.5c-0.2,1.8,0.1,3,1,3.5c-0.6-0.6-0.9-1.5-0.8-2.5
			c0.1-1,0.3-2,0.7-3c0.4-1,0.9-1.9,1.4-2.8C286.8,43.5,287.2,42.9,287.5,42.5z M293.1,38.9c-0.5-0.3-1.2-0.1-2.1,0.5
			c-0.9,0.7-1.8,1.6-2.6,2.7c-0.9,1.1-1.7,2.4-2.4,3.7c-0.7,1.3-1.2,2.6-1.3,3.7c1.5-0.3,2.9-1.1,4.1-2.1c1.2-1.1,2.2-2.2,2.9-3.4
			c0.7-1.2,1.2-2.3,1.5-3.3C293.4,39.7,293.4,39.1,293.1,38.9z M292.7,43.2c-0.2,0.3-0.5,0.7-0.8,1.4c-0.4,0.6-0.9,1.2-1.5,1.9
			c-0.6,0.7-1.4,1.3-2.2,1.9c-0.9,0.6-1.8,1.2-3,1.5c0.6-0.1,1.3-0.3,2.1-0.7c0.8-0.4,1.5-0.9,2.2-1.5s1.3-1.3,1.9-2.1
			C292,44.9,292.5,44.1,292.7,43.2z M287.8,53.5c0.9,0.3,2.3,0.3,4.2-0.2c1.9-0.5,3.8-1.7,5.8-3.7c-0.2,0.2-0.7,0.5-1.4,1.1
			s-1.4,1-2.3,1.5s-1.9,0.9-3,1.2S288.8,53.7,287.8,53.5z M288.5,54.2c0.4,0.1,0.9,0.2,1.5,0.2c0.6,0,1.3-0.1,2.1-0.4
			c0.8-0.3,1.6-0.7,2.5-1.2c0.9-0.5,1.8-1.2,2.6-2.1c-0.2,0.2-0.7,0.5-1.2,1c-0.6,0.4-1.3,0.9-2.1,1.3c-0.8,0.4-1.7,0.8-2.6,1.1
			C290.4,54.2,289.4,54.3,288.5,54.2z M289.6,54.6c0.7,0.2,1.7,0.2,3-0.1c1.3-0.3,2.7-1.2,4.1-2.6c-0.2,0.1-0.5,0.4-1,0.8
			c-0.5,0.4-1,0.7-1.7,1.1c-0.6,0.3-1.3,0.6-2.1,0.8C291.2,54.7,290.4,54.7,289.6,54.6z M295.5,33.7c0.6,0.8,1.1,1.7,1.2,2.6
			c0.2,0.9,0.2,1.9,0.1,2.9c-0.1,1-0.4,2-0.8,3.1c-0.4,1.1-0.9,2.1-1.4,3.1c1.1-1.8,1.8-3.3,2.2-4.7c0.3-1.4,0.4-2.6,0.3-3.6
			c-0.1-1-0.4-1.7-0.7-2.3C296,34.3,295.7,33.9,295.5,33.7z M295.2,45.4c1.1-1.8,1.8-3.4,2.2-4.8c0.3-1.4,0.4-2.5,0.3-3.5
			c-0.1-1-0.4-1.7-0.7-2.3c-0.4-0.6-0.7-0.9-0.9-1.1c0.6,0.8,1.1,1.7,1.2,2.6c0.2,0.9,0.2,1.9,0.1,2.9c-0.1,1-0.4,2-0.8,3.1
			C296.2,43.4,295.7,44.4,295.2,45.4z M295.8,45.3c1.1-1.8,1.8-3.3,2.2-4.7c0.3-1.4,0.4-2.6,0.3-3.6c-0.1-1-0.4-1.7-0.7-2.3
			c-0.3-0.6-0.6-0.9-0.9-1.1c0.6,0.8,1.1,1.7,1.2,2.6c0.2,0.9,0.2,1.9,0.1,2.9c-0.1,1-0.4,2-0.8,3.1
			C296.8,43.3,296.3,44.3,295.8,45.3z"/>
	</g>
</g>
</svg>
